<svg xmlns="http://www.w3.org/2000/svg" width="720" height="460" font-family="DejaVu Sans, Arial, sans-serif" font-size="12">
<text x="20.0" y="32.0" font-size="14" text-anchor="start" font-weight="bold">Selected top-pass rate by local selector (25 tasks, 95% CI)</text>
<rect x="79.3" y="340.0" width="86.4" height="50.0" fill="#f58518"/>
<text x="122.5" y="334.0" text-anchor="middle" font-size="13">20%</text>
<text x="122.5" y="404.0" text-anchor="middle" font-size="10" fill="#444">random</text>
<text x="122.5" y="416.0" text-anchor="middle" font-size="10" fill="#444">realized</text>
<line x1="122.5" y1="300.0" x2="122.5" y2="380.0" stroke="#222" stroke-width="1.4"/>
<line x1="118.5" y1="300.0" x2="126.5" y2="300.0" stroke="#222" stroke-width="1.4"/>
<line x1="118.5" y1="380.0" x2="126.5" y2="380.0" stroke="#222" stroke-width="1.4"/>
<rect x="244.3" y="338.0" width="86.4" height="52.0" fill="#bbbbbb"/>
<text x="287.5" y="332.0" text-anchor="middle" font-size="13">21%</text>
<text x="287.5" y="404.0" text-anchor="middle" font-size="10" fill="#444">random</text>
<text x="287.5" y="416.0" text-anchor="middle" font-size="10" fill="#444">expected</text>
<line x1="287.5" y1="304.0" x2="287.5" y2="366.0" stroke="#222" stroke-width="1.4"/>
<line x1="283.5" y1="304.0" x2="291.5" y2="304.0" stroke="#222" stroke-width="1.4"/>
<line x1="283.5" y1="366.0" x2="291.5" y2="366.0" stroke="#222" stroke-width="1.4"/>
<rect x="409.3" y="280.0" width="86.4" height="110.0" fill="#54a24b"/>
<text x="452.5" y="274.0" text-anchor="middle" font-size="13">44%</text>
<text x="452.5" y="404.0" text-anchor="middle" font-size="10" fill="#444">discrete</text>
<line x1="452.5" y1="230.0" x2="452.5" y2="330.0" stroke="#222" stroke-width="1.4"/>
<line x1="448.5" y1="230.0" x2="456.5" y2="230.0" stroke="#222" stroke-width="1.4"/>
<line x1="448.5" y1="330.0" x2="456.5" y2="330.0" stroke="#222" stroke-width="1.4"/>
<rect x="574.3" y="280.0" width="86.4" height="110.0" fill="#4c78a8"/>
<text x="617.5" y="274.0" text-anchor="middle" font-size="13">44%</text>
<text x="617.5" y="404.0" text-anchor="middle" font-size="10" fill="#444">continuous</text>
<line x1="617.5" y1="230.0" x2="617.5" y2="330.0" stroke="#222" stroke-width="1.4"/>
<line x1="613.5" y1="230.0" x2="621.5" y2="230.0" stroke="#222" stroke-width="1.4"/>
<line x1="613.5" y1="330.0" x2="621.5" y2="330.0" stroke="#222" stroke-width="1.4"/>
<line x1="30.0" y1="390.0" x2="700.0" y2="390.0" stroke="#222" stroke-width="1.4"/>
<line x1="30.0" y1="338.0" x2="700.0" y2="338.0" stroke="#888" stroke-width="1.4" stroke-dasharray="4,3"/>
<text x="700.0" y="334.0" font-size="10" text-anchor="end" font-weight="normal">pool base 21%</text>
</svg>